<mxfile host="app.diagrams.net" agent="Mozilla/5.0 (Macintosh; Intel Mac OS X 10.15; rv:141.0) Gecko/20100101 Firefox/141.0" version="28.0.7">
  <diagram name="Page-1" id="9GyxsH42c4VcyAcpglJP">
    <mxGraphModel dx="2066" dy="1134" grid="1" gridSize="10" guides="1" tooltips="1" connect="1" arrows="1" fold="1" page="1" pageScale="1" pageWidth="1100" pageHeight="850" math="0" shadow="0">
      <root>
        <mxCell id="0" />
        <mxCell id="1" parent="0" />
        <mxCell id="ArSGitqS-yrrwP4d2pn8-75" style="edgeStyle=orthogonalEdgeStyle;rounded=0;orthogonalLoop=1;jettySize=auto;html=1;exitX=0;exitY=0.5;exitDx=0;exitDy=0;endArrow=none;endFill=0;" parent="1" edge="1">
          <mxGeometry relative="1" as="geometry">
            <mxPoint x="120" y="446" as="sourcePoint" />
            <mxPoint x="93" y="400" as="targetPoint" />
          </mxGeometry>
        </mxCell>
        <mxCell id="OcEBmbgKSJ9BpO2-ke-Y-87" style="edgeStyle=orthogonalEdgeStyle;rounded=0;orthogonalLoop=1;jettySize=auto;html=1;exitX=0.25;exitY=1;exitDx=0;exitDy=0;entryX=0;entryY=0.5;entryDx=0;entryDy=0;endArrow=none;endFill=0;" parent="1" edge="1">
          <mxGeometry relative="1" as="geometry">
            <mxPoint x="520" y="550" as="sourcePoint" />
          </mxGeometry>
        </mxCell>
        <mxCell id="ArSGitqS-yrrwP4d2pn8-37" value="" style="rounded=0;whiteSpace=wrap;html=1;fillColor=none;" parent="1" vertex="1">
          <mxGeometry x="30" y="80" width="390" height="590" as="geometry" />
        </mxCell>
        <mxCell id="ArSGitqS-yrrwP4d2pn8-38" style="edgeStyle=orthogonalEdgeStyle;rounded=0;orthogonalLoop=1;jettySize=auto;html=1;exitX=0.25;exitY=1;exitDx=0;exitDy=0;entryX=0;entryY=0.5;entryDx=0;entryDy=0;endArrow=none;endFill=0;" parent="1" source="ArSGitqS-yrrwP4d2pn8-39" target="ArSGitqS-yrrwP4d2pn8-43" edge="1">
          <mxGeometry relative="1" as="geometry" />
        </mxCell>
        <mxCell id="ArSGitqS-yrrwP4d2pn8-39" value="/Set" style="rounded=0;whiteSpace=wrap;html=1;fontSize=14;fontStyle=1" parent="1" vertex="1">
          <mxGeometry x="70" y="100" width="120" height="30" as="geometry" />
        </mxCell>
        <mxCell id="ArSGitqS-yrrwP4d2pn8-41" style="edgeStyle=orthogonalEdgeStyle;rounded=0;orthogonalLoop=1;jettySize=auto;html=1;exitX=0.25;exitY=1;exitDx=0;exitDy=0;entryX=0.25;entryY=0;entryDx=0;entryDy=0;curved=1;fillColor=#e3c800;strokeColor=#B09500;" parent="1" source="ArSGitqS-yrrwP4d2pn8-43" target="ArSGitqS-yrrwP4d2pn8-59" edge="1">
          <mxGeometry relative="1" as="geometry">
            <Array as="points">
              <mxPoint x="50" y="180" />
              <mxPoint x="50" y="370" />
              <mxPoint x="100" y="370" />
            </Array>
          </mxGeometry>
        </mxCell>
        <mxCell id="ArSGitqS-yrrwP4d2pn8-79" value="instance&lt;br&gt;of" style="edgeLabel;html=1;align=center;verticalAlign=middle;resizable=0;points=[];" parent="ArSGitqS-yrrwP4d2pn8-41" vertex="1" connectable="0">
          <mxGeometry x="0.0172" y="4" relative="1" as="geometry">
            <mxPoint as="offset" />
          </mxGeometry>
        </mxCell>
        <mxCell id="PDXbcBIjD5iud7wV40T2-59" style="edgeStyle=orthogonalEdgeStyle;rounded=0;orthogonalLoop=1;jettySize=auto;html=1;exitX=1;exitY=0.5;exitDx=0;exitDy=0;entryX=0;entryY=0.5;entryDx=0;entryDy=0;strokeColor=#FF0000;" edge="1" parent="1" source="ArSGitqS-yrrwP4d2pn8-43" target="PDXbcBIjD5iud7wV40T2-37">
          <mxGeometry relative="1" as="geometry" />
        </mxCell>
        <mxCell id="PDXbcBIjD5iud7wV40T2-63" value="&amp;nbsp;references&amp;nbsp;&lt;br&gt;instanceable" style="edgeLabel;html=1;align=center;verticalAlign=middle;resizable=0;points=[];" vertex="1" connectable="0" parent="PDXbcBIjD5iud7wV40T2-59">
          <mxGeometry x="-0.6161" y="-2" relative="1" as="geometry">
            <mxPoint as="offset" />
          </mxGeometry>
        </mxCell>
        <mxCell id="ArSGitqS-yrrwP4d2pn8-43" value="BluePointInstancerA" style="rounded=0;whiteSpace=wrap;html=1;fontSize=14;fontStyle=1" parent="1" vertex="1">
          <mxGeometry x="120" y="150" width="150" height="30" as="geometry" />
        </mxCell>
        <mxCell id="ArSGitqS-yrrwP4d2pn8-44" value="&amp;lt;prototype subtree&amp;gt;" style="rounded=0;whiteSpace=wrap;html=1;fontSize=14;fontStyle=1;dashed=1;dashPattern=8 8;" parent="1" vertex="1">
          <mxGeometry x="179" y="200" width="161" height="30" as="geometry" />
        </mxCell>
        <mxCell id="ArSGitqS-yrrwP4d2pn8-45" value="" style="endArrow=none;html=1;rounded=0;exitX=0.25;exitY=1;exitDx=0;exitDy=0;entryX=0;entryY=0.5;entryDx=0;entryDy=0;edgeStyle=orthogonalEdgeStyle;endFill=0;dashed=1;dashPattern=8 8;" parent="1" source="ArSGitqS-yrrwP4d2pn8-43" target="ArSGitqS-yrrwP4d2pn8-44" edge="1">
          <mxGeometry width="50" height="50" relative="1" as="geometry">
            <mxPoint x="280" y="500" as="sourcePoint" />
            <mxPoint x="330" y="450" as="targetPoint" />
          </mxGeometry>
        </mxCell>
        <mxCell id="ArSGitqS-yrrwP4d2pn8-48" style="edgeStyle=orthogonalEdgeStyle;rounded=0;orthogonalLoop=1;jettySize=auto;html=1;exitX=0.25;exitY=1;exitDx=0;exitDy=0;entryX=0;entryY=0.5;entryDx=0;entryDy=0;endArrow=none;endFill=0;" parent="1" source="ArSGitqS-yrrwP4d2pn8-39" target="ArSGitqS-yrrwP4d2pn8-52" edge="1">
          <mxGeometry relative="1" as="geometry">
            <mxPoint x="100" y="330" as="sourcePoint" />
          </mxGeometry>
        </mxCell>
        <mxCell id="ArSGitqS-yrrwP4d2pn8-50" style="edgeStyle=orthogonalEdgeStyle;rounded=0;orthogonalLoop=1;jettySize=auto;html=1;exitX=0.25;exitY=1;exitDx=0;exitDy=0;curved=1;fillColor=#e3c800;strokeColor=#B09500;" parent="1" source="ArSGitqS-yrrwP4d2pn8-52" edge="1">
          <mxGeometry relative="1" as="geometry">
            <mxPoint x="100" y="401" as="targetPoint" />
            <Array as="points">
              <mxPoint x="100" y="281" />
            </Array>
          </mxGeometry>
        </mxCell>
        <mxCell id="ArSGitqS-yrrwP4d2pn8-51" value="instance&lt;br&gt;of" style="edgeLabel;html=1;align=center;verticalAlign=middle;resizable=0;points=[];" parent="ArSGitqS-yrrwP4d2pn8-50" vertex="1" connectable="0">
          <mxGeometry x="0.1647" y="4" relative="1" as="geometry">
            <mxPoint as="offset" />
          </mxGeometry>
        </mxCell>
        <mxCell id="PDXbcBIjD5iud7wV40T2-61" style="edgeStyle=orthogonalEdgeStyle;rounded=0;orthogonalLoop=1;jettySize=auto;html=1;exitX=1;exitY=0.5;exitDx=0;exitDy=0;entryX=0;entryY=0.5;entryDx=0;entryDy=0;strokeColor=#FF0000;" edge="1" parent="1" source="ArSGitqS-yrrwP4d2pn8-52" target="PDXbcBIjD5iud7wV40T2-37">
          <mxGeometry relative="1" as="geometry" />
        </mxCell>
        <mxCell id="PDXbcBIjD5iud7wV40T2-64" value="&amp;nbsp;references&amp;nbsp;&lt;br&gt;instanceable" style="edgeLabel;html=1;align=center;verticalAlign=middle;resizable=0;points=[];" vertex="1" connectable="0" parent="PDXbcBIjD5iud7wV40T2-61">
          <mxGeometry x="-0.6008" y="1" relative="1" as="geometry">
            <mxPoint as="offset" />
          </mxGeometry>
        </mxCell>
        <mxCell id="ArSGitqS-yrrwP4d2pn8-52" value="BluePointInstancerB" style="rounded=0;whiteSpace=wrap;html=1;fontSize=14;fontStyle=1" parent="1" vertex="1">
          <mxGeometry x="120" y="251" width="150" height="30" as="geometry" />
        </mxCell>
        <mxCell id="ArSGitqS-yrrwP4d2pn8-53" value="&amp;lt;prototype subtree&amp;gt;" style="rounded=0;whiteSpace=wrap;html=1;fontSize=14;fontStyle=1;dashed=1;dashPattern=12 12;" parent="1" vertex="1">
          <mxGeometry x="170" y="301" width="170" height="30" as="geometry" />
        </mxCell>
        <mxCell id="ArSGitqS-yrrwP4d2pn8-54" value="" style="endArrow=none;html=1;rounded=0;exitX=0.25;exitY=1;exitDx=0;exitDy=0;entryX=0;entryY=0.5;entryDx=0;entryDy=0;edgeStyle=orthogonalEdgeStyle;endFill=0;dashed=1;dashPattern=12 12;" parent="1" source="ArSGitqS-yrrwP4d2pn8-52" target="ArSGitqS-yrrwP4d2pn8-53" edge="1">
          <mxGeometry width="50" height="50" relative="1" as="geometry">
            <mxPoint x="280" y="601" as="sourcePoint" />
            <mxPoint x="330" y="551" as="targetPoint" />
          </mxGeometry>
        </mxCell>
        <mxCell id="ArSGitqS-yrrwP4d2pn8-57" value="&lt;div&gt;bluePointInstancerSet.usda&lt;/div&gt;" style="text;strokeColor=none;align=center;fillColor=none;html=1;verticalAlign=middle;whiteSpace=wrap;rounded=0;" parent="1" vertex="1">
          <mxGeometry x="190" y="50" width="60" height="30" as="geometry" />
        </mxCell>
        <mxCell id="ArSGitqS-yrrwP4d2pn8-59" value="/__Prototype_1" style="rounded=0;whiteSpace=wrap;html=1;fontSize=14;fontStyle=1" parent="1" vertex="1">
          <mxGeometry x="70" y="381" width="120" height="30" as="geometry" />
        </mxCell>
        <mxCell id="ArSGitqS-yrrwP4d2pn8-63" value="Dashed lines indicate that opinions come from prototype." style="text;strokeColor=none;align=left;fillColor=none;html=1;verticalAlign=middle;whiteSpace=wrap;rounded=0;" parent="1" vertex="1">
          <mxGeometry x="50" y="620" width="310" height="40" as="geometry" />
        </mxCell>
        <mxCell id="ArSGitqS-yrrwP4d2pn8-64" style="edgeStyle=orthogonalEdgeStyle;rounded=0;orthogonalLoop=1;jettySize=auto;html=1;exitX=0.25;exitY=1;exitDx=0;exitDy=0;entryX=0;entryY=0.5;entryDx=0;entryDy=0;endArrow=none;endFill=0;" parent="1" source="ArSGitqS-yrrwP4d2pn8-65" target="ArSGitqS-yrrwP4d2pn8-67" edge="1">
          <mxGeometry relative="1" as="geometry" />
        </mxCell>
        <mxCell id="ArSGitqS-yrrwP4d2pn8-65" value="Prototypes" style="rounded=0;whiteSpace=wrap;html=1;fontSize=14;fontStyle=1" parent="1" vertex="1">
          <mxGeometry x="120" y="430" width="120" height="30" as="geometry" />
        </mxCell>
        <mxCell id="ArSGitqS-yrrwP4d2pn8-67" value="Prop" style="rounded=0;whiteSpace=wrap;html=1;fontSize=14;fontStyle=1" parent="1" vertex="1">
          <mxGeometry x="170" y="480" width="120" height="30" as="geometry" />
        </mxCell>
        <mxCell id="ArSGitqS-yrrwP4d2pn8-69" value=".color =&amp;nbsp;&lt;i&gt;red&lt;/i&gt;" style="rounded=0;whiteSpace=wrap;html=1;fontSize=14;fontStyle=1" parent="1" vertex="1">
          <mxGeometry x="220" y="530" width="120" height="30" as="geometry" />
        </mxCell>
        <mxCell id="ArSGitqS-yrrwP4d2pn8-70" value="" style="endArrow=none;html=1;rounded=0;entryX=0.25;entryY=1;entryDx=0;entryDy=0;exitX=0;exitY=0.5;exitDx=0;exitDy=0;edgeStyle=orthogonalEdgeStyle;" parent="1" source="ArSGitqS-yrrwP4d2pn8-69" target="ArSGitqS-yrrwP4d2pn8-67" edge="1">
          <mxGeometry width="50" height="50" relative="1" as="geometry">
            <mxPoint x="-70" y="700" as="sourcePoint" />
            <mxPoint x="-20" y="650" as="targetPoint" />
          </mxGeometry>
        </mxCell>
        <mxCell id="ArSGitqS-yrrwP4d2pn8-72" value="PointInstancer" style="rounded=0;whiteSpace=wrap;html=1;fontSize=14;fontStyle=1" parent="1" vertex="1">
          <mxGeometry x="120" y="580" width="120" height="30" as="geometry" />
        </mxCell>
        <mxCell id="ArSGitqS-yrrwP4d2pn8-73" style="edgeStyle=orthogonalEdgeStyle;rounded=0;orthogonalLoop=1;jettySize=auto;html=1;exitX=0;exitY=0.5;exitDx=0;exitDy=0;entryX=0.192;entryY=0.967;entryDx=0;entryDy=0;entryPerimeter=0;endArrow=none;endFill=0;" parent="1" source="ArSGitqS-yrrwP4d2pn8-72" target="ArSGitqS-yrrwP4d2pn8-59" edge="1">
          <mxGeometry relative="1" as="geometry" />
        </mxCell>
        <mxCell id="PDXbcBIjD5iud7wV40T2-35" style="edgeStyle=orthogonalEdgeStyle;rounded=0;orthogonalLoop=1;jettySize=auto;html=1;exitX=0;exitY=0.5;exitDx=0;exitDy=0;entryX=0.15;entryY=0.667;entryDx=0;entryDy=0;entryPerimeter=0;endArrow=none;endFill=0;" edge="1" parent="1" source="PDXbcBIjD5iud7wV40T2-49" target="PDXbcBIjD5iud7wV40T2-37">
          <mxGeometry relative="1" as="geometry">
            <mxPoint x="512" y="430.5" as="targetPoint" />
          </mxGeometry>
        </mxCell>
        <mxCell id="PDXbcBIjD5iud7wV40T2-36" value="" style="rounded=0;whiteSpace=wrap;html=1;fillColor=none;" vertex="1" parent="1">
          <mxGeometry x="460" y="80" width="360" height="370" as="geometry" />
        </mxCell>
        <mxCell id="PDXbcBIjD5iud7wV40T2-37" value="/BluePointInstancerAsset" style="rounded=0;whiteSpace=wrap;html=1;fontSize=14;fontStyle=1" vertex="1" parent="1">
          <mxGeometry x="480" y="200.5" width="200" height="30" as="geometry" />
        </mxCell>
        <mxCell id="PDXbcBIjD5iud7wV40T2-38" style="edgeStyle=orthogonalEdgeStyle;rounded=0;orthogonalLoop=1;jettySize=auto;html=1;exitX=0.25;exitY=1;exitDx=0;exitDy=0;entryX=0;entryY=0.5;entryDx=0;entryDy=0;endArrow=none;endFill=0;" edge="1" parent="1" source="PDXbcBIjD5iud7wV40T2-39" target="PDXbcBIjD5iud7wV40T2-47">
          <mxGeometry relative="1" as="geometry" />
        </mxCell>
        <mxCell id="PDXbcBIjD5iud7wV40T2-39" value="Prototypes" style="rounded=0;whiteSpace=wrap;html=1;fontSize=14;fontStyle=1" vertex="1" parent="1">
          <mxGeometry x="530" y="250.5" width="120" height="30" as="geometry" />
        </mxCell>
        <mxCell id="PDXbcBIjD5iud7wV40T2-40" value="bluePointInstancerAsset.usda" style="text;strokeColor=none;align=center;fillColor=none;html=1;verticalAlign=middle;whiteSpace=wrap;rounded=0;" vertex="1" parent="1">
          <mxGeometry x="610" y="50" width="60" height="30" as="geometry" />
        </mxCell>
        <mxCell id="PDXbcBIjD5iud7wV40T2-41" style="edgeStyle=orthogonalEdgeStyle;rounded=0;orthogonalLoop=1;jettySize=auto;html=1;exitX=0.25;exitY=1;exitDx=0;exitDy=0;entryX=0;entryY=0.5;entryDx=0;entryDy=0;endArrow=none;endFill=0;" edge="1" parent="1" source="PDXbcBIjD5iud7wV40T2-42" target="PDXbcBIjD5iud7wV40T2-43">
          <mxGeometry relative="1" as="geometry" />
        </mxCell>
        <mxCell id="PDXbcBIjD5iud7wV40T2-42" value="/class_Prop" style="rounded=0;whiteSpace=wrap;html=1;fontSize=14;fontStyle=1" vertex="1" parent="1">
          <mxGeometry x="480" y="100" width="120" height="30" as="geometry" />
        </mxCell>
        <mxCell id="PDXbcBIjD5iud7wV40T2-43" value=".color = blue" style="rounded=0;whiteSpace=wrap;html=1;fontSize=14;fontStyle=1" vertex="1" parent="1">
          <mxGeometry x="530" y="150" width="120" height="30" as="geometry" />
        </mxCell>
        <mxCell id="PDXbcBIjD5iud7wV40T2-44" style="edgeStyle=orthogonalEdgeStyle;rounded=0;orthogonalLoop=1;jettySize=auto;html=1;exitX=1;exitY=0.5;exitDx=0;exitDy=0;entryX=0;entryY=0.5;entryDx=0;entryDy=0;strokeColor=#FF0000;" edge="1" parent="1" source="PDXbcBIjD5iud7wV40T2-47" target="PDXbcBIjD5iud7wV40T2-52">
          <mxGeometry relative="1" as="geometry">
            <mxPoint x="880" y="315.5" as="targetPoint" />
          </mxGeometry>
        </mxCell>
        <mxCell id="PDXbcBIjD5iud7wV40T2-45" value="&amp;nbsp;references&amp;nbsp;" style="edgeLabel;html=1;align=center;verticalAlign=middle;resizable=0;points=[];" vertex="1" connectable="0" parent="PDXbcBIjD5iud7wV40T2-44">
          <mxGeometry x="-0.2333" y="-1" relative="1" as="geometry">
            <mxPoint as="offset" />
          </mxGeometry>
        </mxCell>
        <mxCell id="PDXbcBIjD5iud7wV40T2-46" style="edgeStyle=orthogonalEdgeStyle;rounded=0;orthogonalLoop=1;jettySize=auto;html=1;exitX=0.25;exitY=1;exitDx=0;exitDy=0;entryX=0;entryY=0.5;entryDx=0;entryDy=0;endArrow=none;endFill=0;" edge="1" parent="1" source="PDXbcBIjD5iud7wV40T2-47" target="PDXbcBIjD5iud7wV40T2-58">
          <mxGeometry relative="1" as="geometry" />
        </mxCell>
        <mxCell id="PDXbcBIjD5iud7wV40T2-47" value="Prop" style="rounded=0;whiteSpace=wrap;html=1;fontSize=14;fontStyle=1" vertex="1" parent="1">
          <mxGeometry x="580" y="300.5" width="120" height="30" as="geometry" />
        </mxCell>
        <mxCell id="PDXbcBIjD5iud7wV40T2-48" style="edgeStyle=orthogonalEdgeStyle;rounded=0;orthogonalLoop=1;jettySize=auto;html=1;exitX=0;exitY=0.5;exitDx=0;exitDy=0;entryX=0.16;entryY=0.967;entryDx=0;entryDy=0;entryPerimeter=0;endArrow=none;endFill=0;" edge="1" parent="1" source="PDXbcBIjD5iud7wV40T2-39" target="PDXbcBIjD5iud7wV40T2-37">
          <mxGeometry relative="1" as="geometry" />
        </mxCell>
        <mxCell id="PDXbcBIjD5iud7wV40T2-49" value="PointInstancer" style="rounded=0;whiteSpace=wrap;html=1;fontSize=14;fontStyle=1" vertex="1" parent="1">
          <mxGeometry x="530" y="400" width="120" height="30" as="geometry" />
        </mxCell>
        <mxCell id="PDXbcBIjD5iud7wV40T2-50" value="" style="rounded=0;whiteSpace=wrap;html=1;fillColor=none;" vertex="1" parent="1">
          <mxGeometry x="860" y="230.5" width="260" height="169.5" as="geometry" />
        </mxCell>
        <mxCell id="PDXbcBIjD5iud7wV40T2-51" value="prop_group.usda" style="text;strokeColor=none;align=center;fillColor=none;html=1;verticalAlign=middle;whiteSpace=wrap;rounded=0;" vertex="1" parent="1">
          <mxGeometry x="961.1111111111111" y="200.5" width="57.77777777777777" height="27.073170731707318" as="geometry" />
        </mxCell>
        <mxCell id="PDXbcBIjD5iud7wV40T2-52" value="/Prop" style="rounded=0;whiteSpace=wrap;html=1;fontSize=14;fontStyle=1" vertex="1" parent="1">
          <mxGeometry x="880" y="300.5" width="120" height="30" as="geometry" />
        </mxCell>
        <mxCell id="PDXbcBIjD5iud7wV40T2-53" style="edgeStyle=orthogonalEdgeStyle;rounded=0;orthogonalLoop=1;jettySize=auto;html=1;exitX=1;exitY=0.5;exitDx=0;exitDy=0;entryX=1;entryY=0.5;entryDx=0;entryDy=0;fillColor=#e51400;strokeColor=#FF0000;" edge="1" parent="1" source="PDXbcBIjD5iud7wV40T2-52" target="PDXbcBIjD5iud7wV40T2-57">
          <mxGeometry relative="1" as="geometry">
            <Array as="points">
              <mxPoint x="1040" y="316" />
              <mxPoint x="1040" y="266" />
            </Array>
          </mxGeometry>
        </mxCell>
        <mxCell id="PDXbcBIjD5iud7wV40T2-54" value="&amp;nbsp;inherits" style="edgeLabel;html=1;align=center;verticalAlign=middle;resizable=0;points=[];" vertex="1" connectable="0" parent="PDXbcBIjD5iud7wV40T2-53">
          <mxGeometry x="-0.0077" y="-2" relative="1" as="geometry">
            <mxPoint as="offset" />
          </mxGeometry>
        </mxCell>
        <mxCell id="PDXbcBIjD5iud7wV40T2-55" value=".color = red" style="rounded=0;whiteSpace=wrap;html=1;fontSize=14;fontStyle=1" vertex="1" parent="1">
          <mxGeometry x="930" y="350.5" width="120" height="30" as="geometry" />
        </mxCell>
        <mxCell id="PDXbcBIjD5iud7wV40T2-56" value="" style="endArrow=none;html=1;rounded=0;exitX=0.25;exitY=1;exitDx=0;exitDy=0;entryX=0;entryY=0.5;entryDx=0;entryDy=0;edgeStyle=orthogonalEdgeStyle;endFill=0;" edge="1" parent="1" source="PDXbcBIjD5iud7wV40T2-52" target="PDXbcBIjD5iud7wV40T2-55">
          <mxGeometry width="50" height="50" relative="1" as="geometry">
            <mxPoint x="1040" y="650.5" as="sourcePoint" />
            <mxPoint x="1090" y="600.5" as="targetPoint" />
          </mxGeometry>
        </mxCell>
        <mxCell id="PDXbcBIjD5iud7wV40T2-57" value="/class_Prop" style="rounded=0;whiteSpace=wrap;html=1;fontSize=14;fontStyle=1" vertex="1" parent="1">
          <mxGeometry x="880" y="250.5" width="120" height="30" as="geometry" />
        </mxCell>
        <mxCell id="PDXbcBIjD5iud7wV40T2-58" value=".color" style="rounded=0;whiteSpace=wrap;html=1;fontSize=14;fontStyle=1" vertex="1" parent="1">
          <mxGeometry x="630" y="350.5" width="120" height="30" as="geometry" />
        </mxCell>
        <mxCell id="PDXbcBIjD5iud7wV40T2-65" value="" style="rounded=0;whiteSpace=wrap;html=1;fillColor=#f8cecc;strokeColor=#b85450;opacity=50;" vertex="1" parent="1">
          <mxGeometry x="470" y="90" width="330" height="100" as="geometry" />
        </mxCell>
        <mxCell id="PDXbcBIjD5iud7wV40T2-67" value="&lt;b&gt;This override would be&lt;br&gt;ignored under proposed&lt;br&gt;&lt;/b&gt;&lt;div&gt;&lt;b&gt;solution&lt;/b&gt;&lt;/div&gt;&lt;div&gt;&lt;b&gt;&lt;br&gt;&lt;/b&gt;&lt;/div&gt;" style="text;strokeColor=none;align=center;fillColor=none;html=1;verticalAlign=middle;whiteSpace=wrap;rounded=0;" vertex="1" parent="1">
          <mxGeometry x="670" y="130" width="100" height="30" as="geometry" />
        </mxCell>
      </root>
    </mxGraphModel>
  </diagram>
</mxfile>
